<?xml version="1.0" encoding="UTF-8"?> <svg xmlns="http://www.w3.org/2000/svg" width="95" height="27" viewBox="0 0 95 27" fill="none"><path d="M11.208 0.31958C15.566 -0.0147289 19.2015 1.64947 21.5615 4.50317C23.9202 7.35525 24.9969 11.386 24.2637 15.7756C22.0466 29.0443 3.46739 29.4319 0.545898 16.6243C-1.24021 8.78984 3.16029 0.935233 11.208 0.31958ZM31.9189 0.185791C33.2962 0.151283 34.6787 0.121245 36.0273 0.199463C38.3604 0.332936 40.3487 0.966159 41.7822 2.22583C43.2191 3.48858 44.0797 5.36441 44.1875 7.94067C44.3737 12.4465 41.2763 15.7558 37.0576 16.01L43.9766 25.72L44.1455 25.9573H39.6992L39.6553 25.8938L31.3037 13.9514L31.2725 13.9817L31.2803 25.8108V25.9612H27.8867L27.8418 25.9153L27.707 25.7747L27.666 25.7317V0.19165L27.8223 0.199463C29.1651 0.259483 30.5395 0.220354 31.9189 0.185791ZM74.8281 0.199463V3.57642H65.4219V11.3879H74.8281V14.6672H65.4219V22.3899H74.8281V25.9495H61.8027V0.199463H74.8281ZM20.999 11.5579C20.2919 5.84056 15.0747 2.14845 9.70508 3.84692L9.44531 3.93384C5.42798 5.33621 3.45703 9.35927 3.53418 13.3538C3.61143 17.3478 5.73504 21.2571 9.84473 22.4377C13.9362 23.6126 18.2425 21.8188 20.1084 17.8118V17.8108C20.1552 17.7115 20.2745 17.4358 20.3838 17.1643C20.4383 17.0288 20.4901 16.8959 20.5283 16.7883C20.5474 16.7345 20.5626 16.688 20.5732 16.6516C20.5785 16.6336 20.5824 16.6189 20.585 16.6077C20.5871 16.5981 20.5877 16.593 20.5879 16.592C20.5879 16.5758 20.5817 16.5402 20.5537 16.4807C20.5254 16.4205 20.4814 16.3481 20.4229 16.2668C20.306 16.1046 20.1414 15.9191 19.9619 15.7336C19.603 15.3629 19.197 15.0088 19.0234 14.8733C16.0672 12.5681 12.1053 12.5357 8.56055 13.1985L8.55957 13.1975L5.89258 13.7737L5.76367 13.512C9.98249 9.94428 16.0594 9.30847 20.999 11.5579ZM94.4512 18.218H94.4502C94.2207 21.0372 93.4291 23.1836 91.9756 24.5793C90.5188 25.9779 88.4221 26.5989 85.6396 26.4202C83.1682 26.2618 81.4264 25.2206 80.2773 23.6213C79.1328 22.0283 78.5853 19.8943 78.4668 17.5598V0.199463H82.085V17.6409L82.123 18.1829C82.2323 19.4283 82.4834 20.5272 83.0088 21.3645C83.602 22.3098 84.5554 22.9373 86.1084 23.0471C87.9446 23.1767 89.0913 22.6389 89.8086 21.676C90.5358 20.6997 90.8422 19.2607 90.9297 17.5481V0.199463H94.4512V18.218ZM36.333 3.78442C34.6009 3.49491 32.7048 3.58703 31.2803 3.58325V13.1575L31.4434 13.6663C32.118 13.5635 32.857 13.5401 33.6084 13.5256C34.3886 13.5106 35.1829 13.5049 35.9531 13.4329C37.4938 13.2887 38.8992 12.8825 39.8379 11.6418C40.3352 10.9864 40.6281 10.0594 40.7129 9.09497C40.7975 8.13139 40.673 7.14691 40.3535 6.38208C39.687 4.78603 38.1261 4.08418 36.333 3.78442ZM59.2373 25.72L59.1953 25.7639L59.0605 25.9036L59.0166 25.9495H47.3779V0.199463H50.9033V22.3899H59.0146L59.0596 22.4338L59.1934 22.5706L59.2373 22.6145V25.72Z" fill="#0D3051" stroke="#0D3051" stroke-width="0.3"></path></svg> 